<svg id="visual" viewBox="0 0 960 540" width="960" height="540" xmlns="http://www.w3.org/2000/svg" xmlns:xlink="http://www.w3.org/1999/xlink" version="1.1"><rect x="0" y="0" width="960" height="540" fill="#202731"></rect><path d="M0 344L22.8 348.2C45.7 352.3 91.3 360.7 137 362.5C182.7 364.3 228.3 359.7 274 357C319.7 354.3 365.3 353.7 411.2 359.2C457 364.7 503 376.3 548.8 373.5C594.7 370.7 640.3 353.3 686 350.2C731.7 347 777.3 358 823 365.8C868.7 373.7 914.3 378.3 937.2 380.7L960 383L960 541L937.2 541C914.3 541 868.7 541 823 541C777.3 541 731.7 541 686 541C640.3 541 594.7 541 548.8 541C503 541 457 541 411.2 541C365.3 541 319.7 541 274 541C228.3 541 182.7 541 137 541C91.3 541 45.7 541 22.8 541L0 541Z" fill="#ff6f61"></path><path d="M0 354L22.8 354.2C45.7 354.3 91.3 354.7 137 357.2C182.7 359.7 228.3 364.3 274 373.8C319.7 383.3 365.3 397.7 411.2 396.2C457 394.7 503 377.3 548.8 376.2C594.7 375 640.3 390 686 396.8C731.7 403.7 777.3 402.3 823 406.3C868.7 410.3 914.3 419.7 937.2 424.3L960 429L960 541L937.2 541C914.3 541 868.7 541 823 541C777.3 541 731.7 541 686 541C640.3 541 594.7 541 548.8 541C503 541 457 541 411.2 541C365.3 541 319.7 541 274 541C228.3 541 182.7 541 137 541C91.3 541 45.7 541 22.8 541L0 541Z" fill="#f35c62"></path><path d="M0 422L22.8 428.2C45.7 434.3 91.3 446.7 137 448.7C182.7 450.7 228.3 442.3 274 435.8C319.7 429.3 365.3 424.7 411.2 425.8C457 427 503 434 548.8 432.7C594.7 431.3 640.3 421.7 686 414.8C731.7 408 777.3 404 823 408C868.7 412 914.3 424 937.2 430L960 436L960 541L937.2 541C914.3 541 868.7 541 823 541C777.3 541 731.7 541 686 541C640.3 541 594.7 541 548.8 541C503 541 457 541 411.2 541C365.3 541 319.7 541 274 541C228.3 541 182.7 541 137 541C91.3 541 45.7 541 22.8 541L0 541Z" fill="#e64964"></path><path d="M0 449L22.8 455.3C45.7 461.7 91.3 474.3 137 479.5C182.7 484.7 228.3 482.3 274 480.8C319.7 479.3 365.3 478.7 411.2 479C457 479.3 503 480.7 548.8 477.3C594.7 474 640.3 466 686 462.3C731.7 458.7 777.3 459.3 823 459.3C868.7 459.3 914.3 458.7 937.2 458.3L960 458L960 541L937.2 541C914.3 541 868.7 541 823 541C777.3 541 731.7 541 686 541C640.3 541 594.7 541 548.8 541C503 541 457 541 411.2 541C365.3 541 319.7 541 274 541C228.3 541 182.7 541 137 541C91.3 541 45.7 541 22.8 541L0 541Z" fill="#d73666"></path><path d="M0 478L22.8 478.7C45.7 479.3 91.3 480.7 137 482.3C182.7 484 228.3 486 274 491C319.7 496 365.3 504 411.2 506.8C457 509.7 503 507.3 548.8 502.3C594.7 497.3 640.3 489.7 686 485.3C731.7 481 777.3 480 823 483C868.7 486 914.3 493 937.2 496.5L960 500L960 541L937.2 541C914.3 541 868.7 541 823 541C777.3 541 731.7 541 686 541C640.3 541 594.7 541 548.8 541C503 541 457 541 411.2 541C365.3 541 319.7 541 274 541C228.3 541 182.7 541 137 541C91.3 541 45.7 541 22.8 541L0 541Z" fill="#c62368"></path></svg>