<svg id="visual" viewBox="0 0 900 600" width="900" height="600" xmlns="http://www.w3.org/2000/svg" version="1.1">
    <path d="M0 391L21.5 391.8C43 392.7 86 394.3 128.8 387.8C171.7 381.3 214.3 366.7 257.2 363.7C300 360.7 343 369.3 385.8 384.7C428.7 400 471.3 422 514.2 421.5C557 421 600 398 642.8 394.3C685.7 390.7 728.3 406.3 771.2 410.5C814 414.7 857 407.3 878.5 403.7L900 400L900 601L878.5 601C857 601 814 601 771.2 601C728.3 601 685.7 601 642.8 601C600 601 557 601 514.2 601C471.3 601 428.7 601 385.8 601C343 601 300 601 257.2 601C214.3 601 171.7 601 128.8 601C86 601 43 601 21.5 601L0 601Z"
          fill="#ff6f61"></path>
    <path d="M0 435L21.5 438.8C43 442.7 86 450.3 128.8 457.3C171.7 464.3 214.3 470.7 257.2 460.7C300 450.7 343 424.3 385.8 418C428.7 411.7 471.3 425.3 514.2 438.5C557 451.7 600 464.3 642.8 463.2C685.7 462 728.3 447 771.2 438C814 429 857 426 878.5 424.5L900 423L900 601L878.5 601C857 601 814 601 771.2 601C728.3 601 685.7 601 642.8 601C600 601 557 601 514.2 601C471.3 601 428.7 601 385.8 601C343 601 300 601 257.2 601C214.3 601 171.7 601 128.8 601C86 601 43 601 21.5 601L0 601Z"
          fill="#f35c62"></path>
    <path d="M0 509L21.5 509.3C43 509.7 86 510.3 128.8 508.3C171.7 506.3 214.3 501.7 257.2 492.3C300 483 343 469 385.8 466.2C428.7 463.3 471.3 471.7 514.2 472.7C557 473.7 600 467.3 642.8 471.2C685.7 475 728.3 489 771.2 487.7C814 486.3 857 469.7 878.5 461.3L900 453L900 601L878.5 601C857 601 814 601 771.2 601C728.3 601 685.7 601 642.8 601C600 601 557 601 514.2 601C471.3 601 428.7 601 385.8 601C343 601 300 601 257.2 601C214.3 601 171.7 601 128.8 601C86 601 43 601 21.5 601L0 601Z"
          fill="#e64964"></path>
    <path d="M0 509L21.5 504.8C43 500.7 86 492.3 128.8 495C171.7 497.7 214.3 511.3 257.2 511.8C300 512.3 343 499.7 385.8 498.5C428.7 497.3 471.3 507.7 514.2 516.3C557 525 600 532 642.8 531.2C685.7 530.3 728.3 521.7 771.2 513.7C814 505.7 857 498.3 878.5 494.7L900 491L900 601L878.5 601C857 601 814 601 771.2 601C728.3 601 685.7 601 642.8 601C600 601 557 601 514.2 601C471.3 601 428.7 601 385.8 601C343 601 300 601 257.2 601C214.3 601 171.7 601 128.8 601C86 601 43 601 21.5 601L0 601Z"
          fill="#d73666"></path>
    <path d="M0 531L21.5 531.2C43 531.3 86 531.7 128.8 538.3C171.7 545 214.3 558 257.2 558.3C300 558.7 343 546.3 385.8 544.3C428.7 542.3 471.3 550.7 514.2 556.5C557 562.3 600 565.7 642.8 566C685.7 566.3 728.3 563.7 771.2 562.7C814 561.7 857 562.3 878.5 562.7L900 563L900 601L878.5 601C857 601 814 601 771.2 601C728.3 601 685.7 601 642.8 601C600 601 557 601 514.2 601C471.3 601 428.7 601 385.8 601C343 601 300 601 257.2 601C214.3 601 171.7 601 128.8 601C86 601 43 601 21.5 601L0 601Z"
          fill="#c62368"></path>
</svg>