<svg id="visual" viewBox="0 0 960 300" width="960" height="300" xmlns="http://www.w3.org/2000/svg" version="1.1">
    <rect x="0" y="0" width="960" height="300" fill="#202731"></rect>
    <path d="M0 74L22.8 75.8C45.7 77.7 91.3 81.3 137 86.2C182.7 91 228.3 97 274 99.7C319.7 102.3 365.3 101.7 411.2 96.2C457 90.7 503 80.3 548.8 80C594.7 79.7 640.3 89.3 686 89.7C731.7 90 777.3 81 823 79.5C868.7 78 914.3 84 937.2 87L960 90L960 0L937.2 0C914.3 0 868.7 0 823 0C777.3 0 731.7 0 686 0C640.3 0 594.7 0 548.8 0C503 0 457 0 411.2 0C365.3 0 319.7 0 274 0C228.3 0 182.7 0 137 0C91.3 0 45.7 0 22.8 0L0 0Z"
          fill="#ff6f61"></path>
    <path d="M0 62L22.8 61.5C45.7 61 91.3 60 137 60.7C182.7 61.3 228.3 63.7 274 63.2C319.7 62.7 365.3 59.3 411.2 58.3C457 57.3 503 58.7 548.8 57.7C594.7 56.7 640.3 53.3 686 51.2C731.7 49 777.3 48 823 47.8C868.7 47.7 914.3 48.3 937.2 48.7L960 49L960 0L937.2 0C914.3 0 868.7 0 823 0C777.3 0 731.7 0 686 0C640.3 0 594.7 0 548.8 0C503 0 457 0 411.2 0C365.3 0 319.7 0 274 0C228.3 0 182.7 0 137 0C91.3 0 45.7 0 22.8 0L0 0Z"
          fill="#ee5849"></path>
    <path d="M0 54L22.8 49.3C45.7 44.7 91.3 35.3 137 31.5C182.7 27.7 228.3 29.3 274 30C319.7 30.7 365.3 30.3 411.2 33.5C457 36.7 503 43.3 548.8 42.5C594.7 41.7 640.3 33.3 686 33C731.7 32.7 777.3 40.3 823 41.5C868.7 42.7 914.3 37.3 937.2 34.7L960 32L960 0L937.2 0C914.3 0 868.7 0 823 0C777.3 0 731.7 0 686 0C640.3 0 594.7 0 548.8 0C503 0 457 0 411.2 0C365.3 0 319.7 0 274 0C228.3 0 182.7 0 137 0C91.3 0 45.7 0 22.8 0L0 0Z"
          fill="#dd3f31"></path>
</svg>